<svg width="154" height="48" xmlns="http://www.w3.org/2000/svg" xmlns:xlink="http://www.w3.org/1999/xlink" xml:space="preserve" overflow="hidden"><g transform="translate(-612 -152)"><g><g><g><path d="M118.531 61.7373 118.531 66.5122 117.857 66.5122 117.857 61.7373 118.531 61.7373Z" fill="#002864" fill-rule="nonzero" fill-opacity="1" transform="matrix(1.00491 0 0 1 582.452 117.988)"/><path d="M122.491 64.209 122.491 66.4841 121.817 66.4841 121.817 64.2371C121.817 63.7315 121.508 63.3945 121.031 63.3945 120.553 63.3945 120.329 63.563 120.16 63.872L120.16 66.4841 119.514 66.4841 119.514 62.8889 120.104 62.8889 120.104 63.2259C120.385 62.9731 120.722 62.8046 121.143 62.8046 121.958 62.8046 122.463 63.3383 122.463 64.209Z" fill="#002864" fill-rule="nonzero" fill-opacity="1" transform="matrix(1.00491 0 0 1 582.452 117.988)"/><path d="M124.486 61.9339 124.486 62.8889 125.665 62.8889 125.665 63.4787 124.486 63.4787 124.486 65.4449C124.486 65.7539 124.626 65.8943 124.907 65.8943L125.497 65.8943 125.497 66.4841 124.907 66.4841C124.205 66.4841 123.84 66.119 123.84 65.4449L123.84 63.4787 122.885 63.4787 122.885 62.8889 123.643 62.8889C123.784 62.8889 123.84 62.8327 123.84 62.6923L123.84 61.9339 124.486 61.9339Z" fill="#002864" fill-rule="nonzero" fill-opacity="1" transform="matrix(1.00491 0 0 1 582.452 117.988)"/><path d="M129.008 64.9393 126.648 64.9393 126.648 65.1078C126.648 65.6415 126.986 65.9786 127.547 65.9786 128.109 65.9786 128.362 65.7258 128.362 65.3887L129.008 65.3887C128.98 66.119 128.362 66.5965 127.519 66.5965 126.677 66.5965 125.974 66.0347 125.974 65.1359L125.974 64.2652C125.974 63.3945 126.592 62.8046 127.491 62.8046 128.39 62.8046 128.98 63.3945 128.98 64.2652L128.98 64.9393ZM126.648 64.2933 126.648 64.4056 128.362 64.4056 128.362 64.2933C128.362 63.7596 128.025 63.4226 127.519 63.4226 127.014 63.4226 126.648 63.7596 126.648 64.2933Z" fill="#002864" fill-rule="nonzero" fill-opacity="1" transform="matrix(1.00491 0 0 1 582.452 117.988)"/><path d="M131.873 62.8889 131.873 63.4787 131.339 63.4787C130.974 63.4787 130.693 63.6473 130.525 63.9281L130.525 66.4841 129.879 66.4841 129.879 62.8889 130.468 62.8889 130.468 63.1979C130.721 63.0012 131.03 62.8889 131.367 62.8889L131.873 62.8889Z" fill="#002864" fill-rule="nonzero" fill-opacity="1" transform="matrix(1.00491 0 0 1 582.452 117.988)"/><path d="M135.384 64.209 135.384 66.4841 134.71 66.4841 134.71 64.2371C134.71 63.7315 134.401 63.3945 133.923 63.3945 133.446 63.3945 133.221 63.563 133.053 63.872L133.053 66.4841 132.407 66.4841 132.407 62.8889 132.996 62.8889 132.996 63.2259C133.277 62.9731 133.614 62.8046 134.036 62.8046 134.85 62.8046 135.356 63.3383 135.356 64.209Z" fill="#002864" fill-rule="nonzero" fill-opacity="1" transform="matrix(1.00491 0 0 1 582.452 117.988)"/><path d="M139.12 64.1528 139.12 66.5122 138.53 66.5122 138.53 66.2314C138.249 66.4841 137.884 66.5965 137.434 66.5965 136.648 66.5965 136.17 66.2033 136.17 65.5572 136.17 64.9112 136.535 64.6303 137.35 64.518L138.445 64.3775 138.445 64.1528C138.445 63.6753 138.165 63.4226 137.659 63.4226 137.153 63.4226 136.844 63.6753 136.844 64.0967L136.844 64.1528 136.17 64.1528 136.17 64.0967C136.17 63.3102 136.732 62.8046 137.659 62.8046 138.586 62.8046 139.091 63.2821 139.091 64.1528ZM138.474 65.5011 138.474 64.8831 137.49 65.0236C137.041 65.0797 136.844 65.2764 136.844 65.5292 136.844 65.7819 137.097 66.0066 137.519 66.0066 137.94 66.0066 138.305 65.81 138.474 65.5011Z" fill="#002864" fill-rule="nonzero" fill-opacity="1" transform="matrix(1.00491 0 0 1 582.452 117.988)"/><path d="M141.086 61.9339 141.086 62.8889 142.265 62.8889 142.265 63.4787 141.086 63.4787 141.086 65.4449C141.086 65.7539 141.226 65.8943 141.507 65.8943L142.097 65.8943 142.097 66.4841 141.507 66.4841C140.805 66.4841 140.44 66.119 140.44 65.4449L140.44 63.4787 139.485 63.4787 139.485 62.8889 140.243 62.8889C140.383 62.8889 140.44 62.8327 140.44 62.6923L140.44 61.9339 141.086 61.9339Z" fill="#002864" fill-rule="nonzero" fill-opacity="1" transform="matrix(1.00491 0 0 1 582.452 117.988)"/><path d="M142.743 61.9058C142.743 61.6249 142.939 61.4564 143.192 61.4564 143.445 61.4564 143.642 61.6249 143.642 61.9058 143.642 62.1867 143.445 62.3552 143.192 62.3552 142.939 62.3552 142.743 62.1586 142.743 61.9058ZM143.529 66.5122 142.883 66.5122 142.883 62.917 143.529 62.917 143.529 66.5122Z" fill="#002864" fill-rule="nonzero" fill-opacity="1" transform="matrix(1.00491 0 0 1 582.452 117.988)"/><path d="M144.4 65.1359 144.4 64.2933C144.4 63.3945 144.99 62.8327 145.917 62.8327 146.844 62.8327 147.462 63.4226 147.462 64.2933L147.462 65.1359C147.462 66.0066 146.872 66.5965 145.917 66.5965 144.962 66.5965 144.4 66.0347 144.4 65.1359ZM146.816 65.1078 146.816 64.2933C146.816 63.7596 146.479 63.4226 145.945 63.4226 145.411 63.4226 145.074 63.7596 145.074 64.2933L145.074 65.1078C145.074 65.6415 145.411 65.9786 145.945 65.9786 146.479 65.9786 146.816 65.6415 146.816 65.1078Z" fill="#002864" fill-rule="nonzero" fill-opacity="1" transform="matrix(1.00491 0 0 1 582.452 117.988)"/><path d="M151.254 64.209 151.254 66.4841 150.579 66.4841 150.579 64.2371C150.579 63.7315 150.27 63.3945 149.793 63.3945 149.315 63.3945 149.091 63.563 148.922 63.872L148.922 66.4841 148.276 66.4841 148.276 62.8889 148.866 62.8889 148.866 63.2259C149.147 62.9731 149.484 62.8046 149.905 62.8046 150.72 62.8046 151.225 63.3383 151.225 64.209Z" fill="#002864" fill-rule="nonzero" fill-opacity="1" transform="matrix(1.00491 0 0 1 582.452 117.988)"/><path d="M154.989 64.1528 154.989 66.5122 154.399 66.5122 154.399 66.2314C154.118 66.4841 153.753 66.5965 153.304 66.5965 152.517 66.5965 152.04 66.2033 152.04 65.5572 152.04 64.9112 152.405 64.6303 153.22 64.518L154.315 64.3775 154.315 64.1528C154.315 63.6753 154.034 63.4226 153.529 63.4226 153.023 63.4226 152.714 63.6753 152.714 64.0967L152.714 64.1528 152.04 64.1528 152.04 64.0967C152.04 63.3102 152.602 62.8046 153.529 62.8046 154.456 62.8046 154.961 63.2821 154.961 64.1528ZM154.315 65.5011 154.315 64.8831 153.332 65.0236C152.883 65.0797 152.686 65.2764 152.686 65.5292 152.686 65.7819 152.939 66.0066 153.36 66.0066 153.781 66.0066 154.147 65.81 154.315 65.5011Z" fill="#002864" fill-rule="nonzero" fill-opacity="1" transform="matrix(1.00491 0 0 1 582.452 117.988)"/><path d="M155.944 66.5122 155.944 61.4564 156.59 61.4564 156.59 66.5122 155.944 66.5122Z" fill="#002864" fill-rule="nonzero" fill-opacity="1" transform="matrix(1.00491 0 0 1 582.452 117.988)"/><path d="M162.994 65.1078 162.994 65.2202C162.994 65.9786 162.404 66.5122 161.534 66.5122L159.68 66.5122 159.68 61.7373 161.421 61.7373C162.32 61.7373 162.882 62.2148 162.882 62.9451L162.882 63.0574C162.882 63.5068 162.657 63.8439 162.292 64.0686 162.713 64.2652 162.966 64.6303 162.966 65.1078ZM160.354 62.3552 160.354 63.7877 161.421 63.7877C161.899 63.7877 162.208 63.5349 162.208 63.1136L162.208 63.0012C162.208 62.5799 161.927 62.3552 161.421 62.3552L160.354 62.3552ZM162.32 65.0797C162.32 64.6584 162.011 64.3775 161.506 64.3775L160.354 64.3775 160.354 65.8662 161.506 65.8662C162.011 65.8662 162.32 65.6134 162.32 65.1921L162.32 65.0797Z" fill="#002864" fill-rule="nonzero" fill-opacity="1" transform="matrix(1.00491 0 0 1 582.452 117.988)"/><path d="M166.702 64.9393 164.342 64.9393 164.342 65.1078C164.342 65.6415 164.68 65.9786 165.241 65.9786 165.803 65.9786 166.056 65.7258 166.056 65.3887L166.702 65.3887C166.674 66.119 166.056 66.5965 165.213 66.5965 164.371 66.5965 163.668 66.0347 163.668 65.1359L163.668 64.2652C163.668 63.3945 164.286 62.8046 165.185 62.8046 166.084 62.8046 166.674 63.3945 166.674 64.2652L166.674 64.9393ZM164.342 64.2933 164.342 64.4056 166.056 64.4056 166.056 64.2933C166.056 63.7596 165.719 63.4226 165.213 63.4226 164.708 63.4226 164.342 63.7596 164.342 64.2933Z" fill="#002864" fill-rule="nonzero" fill-opacity="1" transform="matrix(1.00491 0 0 1 582.452 117.988)"/><path d="M169.567 62.8889 169.567 63.4787 169.033 63.4787C168.668 63.4787 168.387 63.6473 168.219 63.9281L168.219 66.4841 167.573 66.4841 167.573 62.8889 168.162 62.8889 168.162 63.1979C168.415 63.0012 168.724 62.8889 169.061 62.8889L169.567 62.8889Z" fill="#002864" fill-rule="nonzero" fill-opacity="1" transform="matrix(1.00491 0 0 1 582.452 117.988)"/><path d="M170.185 66.5122 170.185 61.4564 170.831 61.4564 170.831 66.5122 170.185 66.5122Z" fill="#002864" fill-rule="nonzero" fill-opacity="1" transform="matrix(1.00491 0 0 1 582.452 117.988)"/><path d="M171.73 61.9058C171.73 61.6249 171.926 61.4564 172.179 61.4564 172.432 61.4564 172.628 61.6249 172.628 61.9058 172.628 62.1867 172.432 62.3552 172.179 62.3552 171.926 62.3552 171.73 62.1586 171.73 61.9058ZM172.516 66.5122 171.87 66.5122 171.87 62.917 172.516 62.917 172.516 66.5122Z" fill="#002864" fill-rule="nonzero" fill-opacity="1" transform="matrix(1.00491 0 0 1 582.452 117.988)"/><path d="M176.476 64.209 176.476 66.4841 175.802 66.4841 175.802 64.2371C175.802 63.7315 175.493 63.3945 175.016 63.3945 174.538 63.3945 174.314 63.563 174.145 63.872L174.145 66.4841 173.499 66.4841 173.499 62.8889 174.089 62.8889 174.089 63.2259C174.37 62.9731 174.707 62.8046 175.128 62.8046 175.943 62.8046 176.448 63.3383 176.448 64.209Z" fill="#002864" fill-rule="nonzero" fill-opacity="1" transform="matrix(1.00491 0 0 1 582.452 117.988)"/><path d="M79.9102 71.9051C79.9102 72.6354 79.4608 73.1129 78.7024 73.2253L79.9102 75.1071 79.9102 75.2195 79.208 75.2195 77.944 73.2253 77.2137 73.2253 77.2137 75.2195 76.5396 75.2195 76.5396 70.4445 78.4215 70.4445C79.3484 70.4445 79.9102 70.9501 79.9102 71.7928L79.9102 71.9051ZM79.2361 71.7928C79.2361 71.3153 78.9552 71.0625 78.4215 71.0625L77.2137 71.0625 77.2137 72.6354 78.4215 72.6354C78.9552 72.6354 79.2361 72.3826 79.2361 71.9051L79.2361 71.7928Z" fill="#002864" fill-rule="nonzero" fill-opacity="1" transform="matrix(1.00491 0 0 1 582.452 117.988)"/><path d="M83.5897 73.6466 81.2303 73.6466 81.2303 73.8151C81.2303 74.3488 81.5674 74.6858 82.1291 74.6858 82.6909 74.6858 82.9437 74.433 82.9437 74.096L83.5897 74.096C83.5616 74.8263 82.9437 75.3038 82.101 75.3038 81.2584 75.3038 80.5562 74.742 80.5562 73.8432L80.5562 72.9725C80.5562 72.1017 81.1741 71.5119 82.073 71.5119 82.9718 71.5119 83.5616 72.1017 83.5616 72.9725L83.5616 73.6466ZM81.2303 73.0005 81.2303 73.1129 82.9437 73.1129 82.9437 73.0005C82.9437 72.4669 82.6066 72.1298 82.101 72.1298 81.5955 72.1298 81.2303 72.4669 81.2303 73.0005Z" fill="#002864" fill-rule="nonzero" fill-opacity="1" transform="matrix(1.00491 0 0 1 582.452 117.988)"/><path d="M84.2919 74.1521 84.2919 74.0679 84.9379 74.0679 84.9379 74.1521C84.9379 74.5173 85.2188 74.7139 85.7805 74.7139 86.3423 74.7139 86.5951 74.5454 86.5951 74.2645L86.5951 74.2083C86.5951 73.9555 86.4266 73.8151 86.0053 73.7308L85.4716 73.6466C84.7694 73.5061 84.3762 73.1691 84.3762 72.6635L84.3762 72.5792C84.3762 71.9613 84.9379 71.54 85.8086 71.54 86.6794 71.54 87.2411 71.9894 87.2411 72.6916L87.2411 72.7758 86.5951 72.7758 86.5951 72.6916C86.5951 72.3264 86.3142 72.1579 85.7805 72.1579 85.2469 72.1579 85.0222 72.3264 85.0222 72.5792L85.0222 72.6354C85.0222 72.8601 85.2188 73.0005 85.5839 73.0848L86.1176 73.1972C86.8479 73.3376 87.2411 73.6747 87.2411 74.2083L87.2411 74.2926C87.2411 74.9386 86.6513 75.3599 85.7805 75.3599 84.9098 75.3599 84.2919 74.9105 84.2919 74.2083Z" fill="#002864" fill-rule="nonzero" fill-opacity="1" transform="matrix(1.00491 0 0 1 582.452 117.988)"/><path d="M90.9768 73.6466 88.6174 73.6466 88.6174 73.8151C88.6174 74.3488 88.9545 74.6858 89.5163 74.6858 90.078 74.6858 90.3308 74.433 90.3308 74.096L90.9768 74.096C90.9487 74.8263 90.3308 75.3038 89.4882 75.3038 88.6455 75.3038 87.9433 74.742 87.9433 73.8432L87.9433 72.9725C87.9433 72.1017 88.5613 71.5119 89.4601 71.5119 90.3589 71.5119 90.9487 72.1017 90.9487 72.9725L90.9487 73.6466ZM88.6174 73.0005 88.6174 73.1129 90.3308 73.1129 90.3308 73.0005C90.3308 72.4669 89.9937 72.1298 89.4882 72.1298 88.9826 72.1298 88.6174 72.4669 88.6174 73.0005Z" fill="#002864" fill-rule="nonzero" fill-opacity="1" transform="matrix(1.00491 0 0 1 582.452 117.988)"/><path d="M94.6283 72.8601 94.6283 75.2195 94.0384 75.2195 94.0384 74.9386C93.7575 75.1914 93.3924 75.3038 92.943 75.3038 92.1565 75.3038 91.679 74.9105 91.679 74.2645 91.679 73.6185 92.0442 73.3376 92.8587 73.2253L93.9541 73.0848 93.9541 72.8601C93.9541 72.3826 93.6733 72.1298 93.1677 72.1298 92.6621 72.1298 92.3531 72.3826 92.3531 72.8039L92.3531 72.8601 91.679 72.8601 91.679 72.8039C91.679 72.0175 92.2408 71.5119 93.1677 71.5119 94.0946 71.5119 94.6002 71.9894 94.6002 72.8601ZM93.9541 74.2364 93.9541 73.6185 92.9711 73.7589C92.5217 73.8151 92.325 74.0117 92.325 74.2645 92.325 74.5173 92.5778 74.742 92.9992 74.742 93.4205 74.742 93.7856 74.5454 93.9541 74.2364Z" fill="#002864" fill-rule="nonzero" fill-opacity="1" transform="matrix(1.00491 0 0 1 582.452 117.988)"/><path d="M97.5775 71.6242 97.5775 72.2141 97.0438 72.2141C96.6787 72.2141 96.3978 72.3826 96.2293 72.6635L96.2293 75.2195 95.5832 75.2195 95.5832 71.6242 96.1731 71.6242 96.1731 71.9332C96.4259 71.7366 96.7348 71.6242 97.0719 71.6242L97.5775 71.6242Z" fill="#002864" fill-rule="nonzero" fill-opacity="1" transform="matrix(1.00491 0 0 1 582.452 117.988)"/><path d="M97.9145 73.8432 97.9145 72.9725C97.9145 72.1017 98.5325 71.5119 99.4594 71.5119 100.386 71.5119 100.948 72.0736 100.948 72.8882L100.948 72.9725 100.302 72.9725 100.302 72.8882C100.302 72.4388 99.965 72.1298 99.4875 72.1298 99.01 72.1298 98.6167 72.4669 98.6167 73.0005L98.6167 73.8151C98.6167 74.3488 98.9538 74.6858 99.4875 74.6858 100.021 74.6858 100.302 74.3768 100.302 73.9555L100.302 73.8713 100.948 73.8713 100.948 73.9555C100.948 74.7701 100.358 75.3038 99.4594 75.3038 98.5606 75.3038 97.9145 74.7139 97.9145 73.8432Z" fill="#002864" fill-rule="nonzero" fill-opacity="1" transform="matrix(1.00491 0 0 1 582.452 117.988)"/><path d="M104.684 72.9163 104.684 75.1914 104.01 75.1914 104.01 72.9444C104.01 72.4388 103.701 72.1017 103.223 72.1017 102.746 72.1017 102.521 72.2703 102.352 72.5792L102.352 75.1914 101.706 75.1914 101.706 70.1356 102.352 70.1356 102.352 71.877C102.605 71.6523 102.942 71.5119 103.336 71.5119 104.15 71.5119 104.656 72.0456 104.656 72.9163Z" fill="#002864" fill-rule="nonzero" fill-opacity="1" transform="matrix(1.00491 0 0 1 582.452 117.988)"/><path d="M107.521 73.8713 107.521 73.7027 108.167 73.7027 108.167 73.8713C108.167 74.433 108.532 74.7139 109.178 74.7139 109.824 74.7139 110.161 74.4611 110.161 73.9836L110.161 73.8994C110.161 73.5342 109.936 73.3095 109.431 73.1691L108.756 73.0005C107.998 72.8039 107.605 72.4107 107.605 71.7928L107.605 71.6804C107.605 70.8939 108.251 70.3603 109.206 70.3603 110.161 70.3603 110.779 70.8659 110.779 71.7366L110.779 71.9051 110.133 71.9051 110.133 71.7366C110.133 71.231 109.824 70.9782 109.178 70.9782 108.532 70.9782 108.251 71.231 108.251 71.6523L108.251 71.7366C108.251 72.0736 108.504 72.2983 108.953 72.4107L109.599 72.5792C110.442 72.8039 110.807 73.1972 110.807 73.8432L110.807 73.9555C110.807 74.7982 110.161 75.3318 109.15 75.3318 108.139 75.3318 107.493 74.8263 107.493 73.8994Z" fill="#002864" fill-rule="nonzero" fill-opacity="1" transform="matrix(1.00491 0 0 1 582.452 117.988)"/><path d="M111.537 73.8432 111.537 72.9725C111.537 72.1017 112.155 71.5119 113.082 71.5119 114.009 71.5119 114.571 72.0736 114.571 72.8882L114.571 72.9725 113.925 72.9725 113.925 72.8882C113.925 72.4388 113.588 72.1298 113.11 72.1298 112.633 72.1298 112.239 72.4669 112.239 73.0005L112.239 73.8151C112.239 74.3488 112.576 74.6858 113.11 74.6858 113.644 74.6858 113.925 74.3768 113.925 73.9555L113.925 73.8713 114.571 73.8713 114.571 73.9555C114.571 74.7701 113.981 75.3038 113.082 75.3038 112.183 75.3038 111.537 74.7139 111.537 73.8432Z" fill="#002864" fill-rule="nonzero" fill-opacity="1" transform="matrix(1.00491 0 0 1 582.452 117.988)"/><path d="M118.334 72.9163 118.334 75.1914 117.66 75.1914 117.66 72.9444C117.66 72.4388 117.351 72.1017 116.874 72.1017 116.396 72.1017 116.172 72.2703 116.003 72.5792L116.003 75.1914 115.357 75.1914 115.357 70.1356 116.003 70.1356 116.003 71.877C116.256 71.6523 116.593 71.5119 116.986 71.5119 117.801 71.5119 118.306 72.0456 118.306 72.9163Z" fill="#002864" fill-rule="nonzero" fill-opacity="1" transform="matrix(1.00491 0 0 1 582.452 117.988)"/><path d="M119.149 73.8432 119.149 73.0005C119.149 72.1017 119.739 71.54 120.666 71.54 121.593 71.54 122.211 72.1298 122.211 73.0005L122.211 73.8432C122.211 74.7139 121.621 75.3038 120.666 75.3038 119.711 75.3038 119.149 74.742 119.149 73.8432ZM121.536 73.8432 121.536 73.0286C121.536 72.495 121.199 72.1579 120.666 72.1579 120.132 72.1579 119.795 72.495 119.795 73.0286L119.795 73.8432C119.795 74.3768 120.132 74.7139 120.666 74.7139 121.199 74.7139 121.536 74.3768 121.536 73.8432Z" fill="#002864" fill-rule="nonzero" fill-opacity="1" transform="matrix(1.00491 0 0 1 582.452 117.988)"/><path d="M122.913 73.8432 122.913 73.0005C122.913 72.1017 123.503 71.54 124.43 71.54 125.356 71.54 125.974 72.1298 125.974 73.0005L125.974 73.8432C125.974 74.7139 125.385 75.3038 124.43 75.3038 123.475 75.3038 122.913 74.742 122.913 73.8432ZM125.3 73.8432 125.3 73.0286C125.3 72.495 124.963 72.1579 124.43 72.1579 123.896 72.1579 123.559 72.495 123.559 73.0286L123.559 73.8432C123.559 74.3768 123.896 74.7139 124.43 74.7139 124.963 74.7139 125.3 74.3768 125.3 73.8432Z" fill="#002864" fill-rule="nonzero" fill-opacity="1" transform="matrix(1.00491 0 0 1 582.452 117.988)"/><path d="M126.817 75.2195 126.817 70.1637 127.463 70.1637 127.463 75.2195 126.817 75.2195Z" fill="#002864" fill-rule="nonzero" fill-opacity="1" transform="matrix(1.00491 0 0 1 582.452 117.988)"/><path d="M130.44 70.6131C130.44 70.3322 130.637 70.1637 130.89 70.1637 131.143 70.1637 131.339 70.3322 131.339 70.6131 131.339 70.8939 131.143 71.0625 130.89 71.0625 130.637 71.0625 130.44 70.8659 130.44 70.6131ZM131.199 75.2195 130.553 75.2195 130.553 71.6242 131.199 71.6242 131.199 75.2195Z" fill="#002864" fill-rule="nonzero" fill-opacity="1" transform="matrix(1.00491 0 0 1 582.452 117.988)"/><path d="M135.159 72.9163 135.159 75.1914 134.485 75.1914 134.485 72.9444C134.485 72.4388 134.176 72.1017 133.699 72.1017 133.221 72.1017 132.996 72.2703 132.828 72.5792L132.828 75.1914 132.182 75.1914 132.182 71.5961 132.772 71.5961 132.772 71.9332C133.053 71.6804 133.39 71.5119 133.811 71.5119 134.625 71.5119 135.131 72.0456 135.131 72.9163Z" fill="#002864" fill-rule="nonzero" fill-opacity="1" transform="matrix(1.00491 0 0 1 582.452 117.988)"/><path d="M138.165 75.2195 138.165 70.4445 139.766 70.4445C140.861 70.4445 141.563 71.1187 141.563 72.1298L141.563 73.5061C141.563 74.5173 140.861 75.2195 139.766 75.2195L138.165 75.2195ZM138.839 71.0625 138.839 74.6016 139.766 74.6016C140.468 74.6016 140.861 74.2083 140.861 73.5061L140.861 72.186C140.861 71.4838 140.468 71.0906 139.766 71.0906L138.839 71.0906Z" fill="#002864" fill-rule="nonzero" fill-opacity="1" transform="matrix(1.00491 0 0 1 582.452 117.988)"/><path d="M145.215 72.8601 145.215 75.2195 144.625 75.2195 144.625 74.9386C144.344 75.1914 143.979 75.3038 143.529 75.3038 142.743 75.3038 142.265 74.9105 142.265 74.2645 142.265 73.6185 142.631 73.3376 143.445 73.2253L144.541 73.0848 144.541 72.8601C144.541 72.3826 144.26 72.1298 143.754 72.1298 143.248 72.1298 142.939 72.3826 142.939 72.8039L142.939 72.8601 142.265 72.8601 142.265 72.8039C142.265 72.0175 142.827 71.5119 143.754 71.5119 144.681 71.5119 145.187 71.9894 145.187 72.8601ZM144.569 74.2364 144.569 73.6185 143.586 73.7589C143.136 73.8151 142.939 74.0117 142.939 74.2645 142.939 74.5173 143.192 74.742 143.614 74.742 144.035 74.742 144.4 74.5454 144.569 74.2364Z" fill="#002864" fill-rule="nonzero" fill-opacity="1" transform="matrix(1.00491 0 0 1 582.452 117.988)"/><path d="M147.181 70.6412 147.181 71.5961 148.36 71.5961 148.36 72.186 147.181 72.186 147.181 74.1521C147.181 74.4611 147.321 74.6016 147.602 74.6016L148.192 74.6016 148.192 75.1914 147.602 75.1914C146.9 75.1914 146.535 74.8263 146.535 74.1521L146.535 72.186 145.58 72.186 145.58 71.5961 146.338 71.5961C146.479 71.5961 146.535 71.54 146.535 71.3995L146.535 70.6412 147.181 70.6412Z" fill="#002864" fill-rule="nonzero" fill-opacity="1" transform="matrix(1.00491 0 0 1 582.452 117.988)"/><path d="M151.731 72.8601 151.731 75.2195 151.141 75.2195 151.141 74.9386C150.86 75.1914 150.495 75.3038 150.046 75.3038 149.259 75.3038 148.782 74.9105 148.782 74.2645 148.782 73.6185 149.147 73.3376 149.961 73.2253L151.057 73.0848 151.057 72.8601C151.057 72.3826 150.776 72.1298 150.27 72.1298 149.765 72.1298 149.456 72.3826 149.456 72.8039L149.456 72.8601 148.782 72.8601 148.782 72.8039C148.782 72.0175 149.344 71.5119 150.27 71.5119 151.197 71.5119 151.703 71.9894 151.703 72.8601ZM151.085 74.2364 151.085 73.6185 150.102 73.7589C149.653 73.8151 149.456 74.0117 149.456 74.2645 149.456 74.5173 149.709 74.742 150.13 74.742 150.551 74.742 150.916 74.5454 151.085 74.2364Z" fill="#002864" fill-rule="nonzero" fill-opacity="1" transform="matrix(1.00491 0 0 1 582.452 117.988)"/><path d="M154.596 73.8713 154.596 73.7027 155.242 73.7027 155.242 73.8713C155.242 74.433 155.607 74.7139 156.253 74.7139 156.899 74.7139 157.236 74.4611 157.236 73.9836L157.236 73.8994C157.236 73.5342 157.012 73.3095 156.506 73.1691L155.832 73.0005C155.073 72.8039 154.68 72.4107 154.68 71.7928L154.68 71.6804C154.68 70.8939 155.326 70.3603 156.281 70.3603 157.236 70.3603 157.854 70.8659 157.854 71.7366L157.854 71.9051 157.208 71.9051 157.208 71.7366C157.208 71.231 156.899 70.9782 156.253 70.9782 155.607 70.9782 155.326 71.231 155.326 71.6523L155.326 71.7366C155.326 72.0736 155.579 72.2983 156.028 72.4107L156.674 72.5792C157.517 72.8039 157.882 73.1972 157.882 73.8432L157.882 73.9555C157.882 74.7982 157.236 75.3318 156.225 75.3318 155.214 75.3318 154.568 74.8263 154.568 73.8994Z" fill="#002864" fill-rule="nonzero" fill-opacity="1" transform="matrix(1.00491 0 0 1 582.452 117.988)"/><path d="M158.613 73.8432 158.613 72.9725C158.613 72.1017 159.231 71.5119 160.157 71.5119 161.084 71.5119 161.646 72.0736 161.646 72.8882L161.646 72.9725 161 72.9725 161 72.8882C161 72.4388 160.663 72.1298 160.185 72.1298 159.708 72.1298 159.315 72.4669 159.315 73.0005L159.315 73.8151C159.315 74.3488 159.652 74.6858 160.185 74.6858 160.719 74.6858 161 74.3768 161 73.9555L161 73.8713 161.646 73.8713 161.646 73.9555C161.646 74.7701 161.056 75.3038 160.157 75.3038 159.259 75.3038 158.613 74.7139 158.613 73.8432Z" fill="#002864" fill-rule="nonzero" fill-opacity="1" transform="matrix(1.00491 0 0 1 582.452 117.988)"/><path d="M162.348 70.6131C162.348 70.3322 162.545 70.1637 162.798 70.1637 163.05 70.1637 163.247 70.3322 163.247 70.6131 163.247 70.8939 163.05 71.0625 162.798 71.0625 162.545 71.0625 162.348 70.8659 162.348 70.6131ZM163.107 75.2195 162.461 75.2195 162.461 71.6242 163.107 71.6242 163.107 75.2195Z" fill="#002864" fill-rule="nonzero" fill-opacity="1" transform="matrix(1.00491 0 0 1 582.452 117.988)"/><path d="M167.011 73.6466 164.651 73.6466 164.651 73.8151C164.651 74.3488 164.989 74.6858 165.55 74.6858 166.112 74.6858 166.365 74.433 166.365 74.096L167.011 74.096C166.983 74.8263 166.365 75.3038 165.522 75.3038 164.68 75.3038 163.977 74.742 163.977 73.8432L163.977 72.9725C163.977 72.1017 164.595 71.5119 165.494 71.5119 166.393 71.5119 166.983 72.1017 166.983 72.9725L166.983 73.6466ZM164.651 73.0005 164.651 73.1129 166.365 73.1129 166.365 73.0005C166.365 72.4669 166.028 72.1298 165.522 72.1298 165.017 72.1298 164.651 72.4669 164.651 73.0005Z" fill="#002864" fill-rule="nonzero" fill-opacity="1" transform="matrix(1.00491 0 0 1 582.452 117.988)"/><path d="M170.803 72.9163 170.803 75.1914 170.129 75.1914 170.129 72.9444C170.129 72.4388 169.82 72.1017 169.342 72.1017 168.865 72.1017 168.64 72.2703 168.471 72.5792L168.471 75.1914 167.825 75.1914 167.825 71.5961 168.415 71.5961 168.415 71.9332C168.696 71.6804 169.033 71.5119 169.455 71.5119 170.269 71.5119 170.775 72.0456 170.775 72.9163Z" fill="#002864" fill-rule="nonzero" fill-opacity="1" transform="matrix(1.00491 0 0 1 582.452 117.988)"/><path d="M171.617 73.8432 171.617 72.9725C171.617 72.1017 172.235 71.5119 173.162 71.5119 174.089 71.5119 174.651 72.0736 174.651 72.8882L174.651 72.9725 174.005 72.9725 174.005 72.8882C174.005 72.4388 173.668 72.1298 173.19 72.1298 172.713 72.1298 172.319 72.4669 172.319 73.0005L172.319 73.8151C172.319 74.3488 172.657 74.6858 173.19 74.6858 173.724 74.6858 174.005 74.3768 174.005 73.9555L174.005 73.8713 174.651 73.8713 174.651 73.9555C174.651 74.7701 174.061 75.3038 173.162 75.3038 172.263 75.3038 171.617 74.7139 171.617 73.8432Z" fill="#002864" fill-rule="nonzero" fill-opacity="1" transform="matrix(1.00491 0 0 1 582.452 117.988)"/><path d="M178.358 73.6466 175.999 73.6466 175.999 73.8151C175.999 74.3488 176.336 74.6858 176.898 74.6858 177.46 74.6858 177.712 74.433 177.712 74.096L178.358 74.096C178.33 74.8263 177.712 75.3038 176.87 75.3038 176.027 75.3038 175.325 74.742 175.325 73.8432L175.325 72.9725C175.325 72.1017 175.943 71.5119 176.842 71.5119 177.74 71.5119 178.33 72.1017 178.33 72.9725L178.33 73.6466ZM175.971 73.0005 175.971 73.1129 177.684 73.1129 177.684 73.0005C177.684 72.4669 177.347 72.1298 176.842 72.1298 176.336 72.1298 175.971 72.4669 175.971 73.0005Z" fill="#002864" fill-rule="nonzero" fill-opacity="1" transform="matrix(1.00491 0 0 1 582.452 117.988)"/><path d="M85.2188 44.7722 85.2188 37.7502 88.5332 37.7502 88.5332 55.0804 85.2188 55.0804 85.2188 48.0865 79.2642 48.0865 79.2642 55.0804 75.9498 55.0804 75.9498 37.7502 79.2642 37.7502 79.2642 44.7722 85.2188 44.7722Z" fill="#002864" fill-rule="nonzero" fill-opacity="1" transform="matrix(1.00491 0 0 1 582.452 117.988)"/><path d="M94.881 41.0927 94.881 44.7722 101.229 44.7722 101.229 48.0865 94.881 48.0865 94.881 51.7661 102.493 51.7661 102.493 55.0804 93.1958 55.0804C93.0553 55.0804 92.9149 55.0243 92.8025 54.9119L91.7352 53.8446C91.6228 53.7322 91.5667 53.5918 91.5667 53.4513L91.5667 39.3793C91.5667 39.2388 91.6228 39.0984 91.7352 38.9861L92.8025 37.9187C92.9149 37.8064 93.0553 37.7502 93.1958 37.7502L102.493 37.7502 102.493 41.0927 94.881 41.0927Z" fill="#002864" fill-rule="nonzero" fill-opacity="1" transform="matrix(1.00491 0 0 1 582.452 117.988)"/><path d="M108.813 55.1085 105.498 55.1085 105.498 37.7783 108.813 37.7783 108.813 55.1085Z" fill="#002864" fill-rule="nonzero" fill-opacity="1" transform="matrix(1.00491 0 0 1 582.452 117.988)"/><path d="M124.317 49.2662 124.317 51.092C124.317 51.8222 124.036 52.5525 123.503 53.0862L122.267 54.3221C121.761 54.8276 121.031 55.1366 120.301 55.1366L113.447 55.1366C113.307 55.1366 113.166 55.0804 113.054 54.9681L111.987 53.9007C111.902 53.8165 111.846 53.648 111.846 53.5075L111.846 39.4355C111.846 39.295 111.902 39.1546 111.987 39.0422L113.054 37.9749C113.166 37.8906 113.307 37.8064 113.447 37.8064L119.57 37.8064C120.301 37.8064 121.003 38.1153 121.536 38.649L122.772 39.8849C123.278 40.3904 123.587 41.1207 123.587 41.851L123.587 43.6767C123.587 44.407 123.306 45.1092 122.772 45.6429L122.267 46.1485 123.503 47.3843C124.008 47.8899 124.317 48.6202 124.317 49.3505ZM119.093 41.0927 115.161 41.0927 115.161 44.8003 119.093 44.8003C119.233 44.8003 119.374 44.716 119.486 44.6317L120.076 44.0419C120.16 43.9576 120.244 43.7891 120.244 43.6486L120.244 42.2443C120.244 42.1038 120.16 41.9634 120.076 41.851L119.486 41.2612C119.402 41.1769 119.233 41.0927 119.093 41.0927ZM120.216 51.5975 120.806 51.0358C120.89 50.9234 120.975 50.783 120.975 50.6425L120.975 49.2101C120.975 49.0696 120.89 48.9292 120.806 48.8168L120.216 48.227C120.132 48.1427 119.964 48.0865 119.823 48.0865L115.161 48.0865 115.161 51.7661 119.823 51.7661C119.964 51.7661 120.104 51.7099 120.216 51.5975Z" fill="#002864" fill-rule="nonzero" fill-opacity="1" transform="matrix(1.00491 0 0 1 582.452 117.988)"/><path d="M140.215 55.1085 136.423 55.1085 133.642 50.1089 130.637 50.1089 130.637 55.1085 127.323 55.1085 127.323 37.7783 135.271 37.7783C136.002 37.7783 136.704 38.0592 137.238 38.5928L138.951 40.3062C139.485 40.8399 139.766 41.5421 139.766 42.2723L139.766 45.6148C139.766 46.3451 139.485 47.0473 138.951 47.581L137.097 49.4348 140.243 55.1366ZM130.637 46.7664 134.794 46.7664C134.934 46.7664 135.075 46.7102 135.187 46.5979L136.255 45.5305C136.367 45.4182 136.423 45.2778 136.423 45.1373L136.423 42.7218C136.423 42.5813 136.367 42.4409 136.255 42.3285L135.187 41.2612C135.075 41.1488 134.934 41.0927 134.794 41.0927L130.637 41.0927 130.637 46.7664Z" fill="#002864" fill-rule="nonzero" fill-opacity="1" transform="matrix(1.00491 0 0 1 582.452 117.988)"/><path d="M146.057 55.1085 142.743 55.1085 142.743 37.7783 146.057 37.7783 146.057 55.1085Z" fill="#14C8FF" fill-rule="nonzero" fill-opacity="1" transform="matrix(1.00491 0 0 1 582.452 117.988)"/><path d="M160.747 40.3062C161.253 40.8118 161.562 41.5421 161.562 42.2723L161.562 50.6145C161.562 51.3447 161.253 52.0469 160.747 52.5806L159.034 54.3221C158.5 54.8557 157.798 55.1366 157.068 55.1366L150.692 55.1366C150.551 55.1366 150.411 55.0804 150.299 54.9681L149.231 53.9007C149.119 53.8165 149.063 53.648 149.063 53.5075L149.063 37.8064 157.096 37.8064C157.826 37.8064 158.528 38.0872 159.062 38.649L160.775 40.3624ZM158.079 42.3285 157.012 41.2612C156.927 41.1769 156.759 41.0927 156.618 41.0927L152.377 41.0927 152.377 51.7942 156.618 51.7942C156.759 51.7942 156.899 51.738 157.012 51.6256L158.079 50.5864C158.163 50.474 158.219 50.3336 158.219 50.1931L158.219 42.7498C158.219 42.6094 158.163 42.469 158.079 42.3566Z" fill="#002864" fill-rule="nonzero" fill-opacity="1" transform="matrix(1.00491 0 0 1 582.452 117.988)"/><path d="M173.864 55.1085 168.977 55.1085C168.247 55.1085 167.545 54.8276 167.011 54.294L165.073 52.3559 167.432 49.9965 169.061 51.6256C169.174 51.738 169.314 51.7942 169.455 51.7942L173.415 51.7942C173.555 51.7942 173.696 51.738 173.808 51.6256L174.875 50.5583C174.988 50.4459 175.044 50.3055 175.044 50.1651L175.044 49.6033C175.044 49.3505 174.875 49.1258 174.651 49.0696L167.46 47.0754C166.646 46.8507 165.915 46.3451 165.41 45.671 164.904 44.9969 164.623 44.1542 164.623 43.3116L164.623 42.2723C164.623 41.5421 164.904 40.8399 165.438 40.3062L167.151 38.5928C167.685 38.0592 168.359 37.7783 169.117 37.7783L174.005 37.7783C174.735 37.7783 175.437 38.0592 175.971 38.5928L177.909 40.5309 175.55 42.8903 173.921 41.2612C173.808 41.1488 173.668 41.0927 173.527 41.0927L169.567 41.0927C169.426 41.0927 169.286 41.1488 169.174 41.2612L168.106 42.3285C167.994 42.4409 167.938 42.5813 167.938 42.7218L167.938 43.3116C167.938 43.5644 168.106 43.7891 168.331 43.8453L175.522 45.8395C176.336 46.0642 177.066 46.5698 177.572 47.2439 178.077 47.918 178.358 48.7607 178.358 49.6033L178.358 50.6425C178.358 51.3728 178.077 52.075 177.544 52.6087L175.83 54.3221C175.297 54.8557 174.623 55.1366 173.864 55.1366Z" fill="#002864" fill-rule="nonzero" fill-opacity="1" transform="matrix(1.00491 0 0 1 582.452 117.988)"/><path d="M39.0141 38.2839 40.0534 39.3231C40.3624 39.6321 40.5309 40.0815 40.5309 40.5309L40.5309 45.671C40.5309 46.1204 40.3624 46.5698 40.0534 46.8788L39.0141 47.9461C38.7052 48.2551 38.2839 48.4517 37.8625 48.4517L36.0087 48.4517C35.5874 48.4517 35.138 48.2832 34.829 47.9461L33.8179 46.8788C33.5089 46.5698 33.3404 46.1204 33.3404 45.671L33.3404 40.5309C33.3404 40.0815 33.5089 39.6321 33.8179 39.3231L34.829 38.2839C35.138 37.9468 35.5593 37.7783 36.0087 37.7783L37.8625 37.7783C38.2839 37.7783 38.7052 37.9749 39.0141 38.2839ZM38.5366 45.3901 38.5366 40.8118C38.5366 40.7275 38.4805 40.6432 38.4243 40.559L37.8064 39.8849C37.7221 39.8287 37.6378 39.7725 37.5536 39.7725L36.2334 39.7725C36.1492 39.7725 36.0649 39.8287 36.0087 39.8849L35.3908 40.559C35.3065 40.6152 35.2784 40.6994 35.2784 40.8118L35.2784 45.3901C35.2784 45.4744 35.3065 45.5586 35.3908 45.6429L36.0087 46.2889C36.093 46.3732 36.1492 46.4013 36.2334 46.4013L37.5536 46.4013C37.6378 46.4013 37.7221 46.3732 37.8064 46.2889L38.4243 45.6429C38.4805 45.5586 38.5366 45.5025 38.5366 45.3901Z" fill="#14C8FF" fill-rule="nonzero" fill-opacity="1" transform="matrix(1.00491 0 0 1 582.452 117.988)"/><path d="M46.5136 48.4236 44.5475 48.4236 44.5475 37.7783 46.5136 37.7783 46.5136 48.4236Z" fill="#002864" fill-rule="nonzero" fill-opacity="1" transform="matrix(1.00491 0 0 1 582.452 117.988)"/><path d="M55.4175 48.4236 53.4513 48.4236 53.4513 37.7783 55.4175 37.7783 55.4175 48.4236Z" fill="#002864" fill-rule="nonzero" fill-opacity="1" transform="matrix(1.00491 0 0 1 582.452 117.988)"/><path d="M65.164 38.2839 66.2033 39.3231C66.5122 39.6321 66.6808 40.0815 66.6808 40.5309L66.6808 45.671C66.6808 46.1204 66.5122 46.5698 66.2033 46.8788L65.164 47.9461C64.855 48.2551 64.4337 48.4517 64.0124 48.4517L62.1586 48.4517C61.7373 48.4517 61.2879 48.2832 60.9789 47.9461L59.9677 46.8788C59.6588 46.5698 59.4902 46.1204 59.4902 45.671L59.4902 40.5309C59.4902 40.0815 59.6588 39.6321 59.9677 39.3231L60.9789 38.2839C61.2879 37.9468 61.7092 37.7783 62.1586 37.7783L64.0124 37.7783C64.4337 37.7783 64.855 37.9749 65.164 38.2839ZM64.6865 45.3901 64.6865 40.8118C64.6865 40.7275 64.6303 40.6432 64.5742 40.559L63.9562 39.8849C63.872 39.8287 63.7877 39.7725 63.7034 39.7725L62.3833 39.7725C62.299 39.7725 62.2148 39.8287 62.1586 39.8849L61.5407 40.559C61.4564 40.6152 61.4283 40.6994 61.4283 40.8118L61.4283 45.3901C61.4283 45.4744 61.4564 45.5586 61.5407 45.6429L62.1586 46.2889C62.2429 46.3732 62.299 46.4013 62.3833 46.4013L63.7034 46.4013C63.7877 46.4013 63.872 46.3732 63.9562 46.2889L64.5742 45.6429C64.6303 45.5586 64.6865 45.5025 64.6865 45.3901Z" fill="#14C8FF" fill-rule="nonzero" fill-opacity="1" transform="matrix(1.00491 0 0 1 582.452 117.988)"/><path d="M39.0141 51.7099 40.0534 52.7491C40.3624 53.0581 40.5309 53.5075 40.5309 53.9569L40.5309 59.097C40.5309 59.5464 40.3624 59.9958 40.0534 60.3048L39.0141 61.3721C38.7052 61.6811 38.2839 61.8777 37.8625 61.8777L36.0087 61.8777C35.5874 61.8777 35.138 61.7092 34.829 61.3721L33.8179 60.3048C33.5089 59.9958 33.3404 59.5464 33.3404 59.097L33.3404 53.9569C33.3404 53.5075 33.5089 53.0581 33.8179 52.7491L34.829 51.7099C35.138 51.3728 35.5593 51.2043 36.0087 51.2043L37.8625 51.2043C38.2839 51.2043 38.7052 51.4009 39.0141 51.7099ZM38.5366 58.8442 38.5366 54.2659C38.5366 54.1816 38.4805 54.0974 38.4243 54.0131L37.8064 53.339C37.7221 53.2828 37.6378 53.2266 37.5536 53.2266L36.2334 53.2266C36.1492 53.2266 36.0649 53.2828 36.0087 53.339L35.3908 54.0131C35.3065 54.0693 35.2784 54.1535 35.2784 54.2659L35.2784 58.8442C35.2784 58.9285 35.3065 59.0128 35.3908 59.097L36.0087 59.743C36.093 59.8273 36.1492 59.8554 36.2334 59.8554L37.5536 59.8554C37.6378 59.8554 37.7221 59.8273 37.8064 59.743L38.4243 59.097C38.4805 59.0128 38.5366 58.9566 38.5366 58.8442Z" fill="#14C8FF" fill-rule="nonzero" fill-opacity="1" transform="matrix(1.00491 0 0 1 582.452 117.988)"/><path d="M47.6371 51.7099 48.6764 52.7491C48.9854 53.0581 49.1539 53.5075 49.1539 53.9569L49.1539 59.097C49.1539 59.5464 48.9854 59.9958 48.6764 60.3048L47.6371 61.3721C47.3282 61.6811 46.9069 61.8777 46.4855 61.8777L44.6317 61.8777C44.2104 61.8777 43.761 61.7092 43.452 61.3721L42.4409 60.3048C42.1319 59.9958 41.9634 59.5464 41.9634 59.097L41.9634 53.9569C41.9634 53.5075 42.1319 53.0581 42.4409 52.7491L43.452 51.7099C43.761 51.3728 44.1823 51.2043 44.6317 51.2043L46.4855 51.2043C46.9069 51.2043 47.3282 51.4009 47.6371 51.7099ZM47.1877 58.8442 47.1877 54.2659C47.1877 54.1816 47.1316 54.0974 47.0754 54.0131L46.4574 53.339C46.3732 53.2828 46.2889 53.2266 46.2047 53.2266L44.8845 53.2266C44.8003 53.2266 44.716 53.2828 44.6598 53.339L44.0419 54.0131C43.9576 54.0693 43.9295 54.1535 43.9295 54.2659L43.9295 58.8442C43.9295 58.9285 43.9576 59.0128 44.0419 59.097L44.6598 59.743C44.7441 59.8273 44.8003 59.8554 44.8845 59.8554L46.2047 59.8554C46.2889 59.8554 46.3732 59.8273 46.4574 59.743L47.0754 59.097C47.1316 59.0128 47.1877 58.9566 47.1877 58.8442Z" fill="#14C8FF" fill-rule="nonzero" fill-opacity="1" transform="matrix(1.00491 0 0 1 582.452 117.988)"/><path d="M56.2601 51.7099 57.2994 52.7491C57.6084 53.0581 57.7769 53.5075 57.7769 53.9569L57.7769 59.097C57.7769 59.5464 57.6084 59.9958 57.2994 60.3048L56.2601 61.3721C55.9512 61.6811 55.5298 61.8777 55.1085 61.8777L53.2547 61.8777C52.8334 61.8777 52.384 61.7092 52.075 61.3721L51.0639 60.3048C50.7549 59.9958 50.5864 59.5464 50.5864 59.097L50.5864 53.9569C50.5864 53.5075 50.7549 53.0581 51.0639 52.7491L52.075 51.7099C52.384 51.3728 52.8053 51.2043 53.2547 51.2043L55.1085 51.2043C55.5298 51.2043 55.9512 51.4009 56.2601 51.7099ZM55.8107 58.8442 55.8107 54.2659C55.8107 54.1816 55.7546 54.0974 55.6984 54.0131L55.0804 53.339C54.9962 53.2828 54.9119 53.2266 54.8276 53.2266L53.5075 53.2266C53.4233 53.2266 53.339 53.2828 53.2828 53.339L52.6649 54.0131C52.5806 54.0693 52.5525 54.1535 52.5525 54.2659L52.5525 58.8442C52.5525 58.9285 52.5806 59.0128 52.6649 59.097L53.2828 59.743C53.3671 59.8273 53.4233 59.8554 53.5075 59.8554L54.8276 59.8554C54.9119 59.8554 54.9962 59.8273 55.0804 59.743L55.6984 59.097C55.7546 59.0128 55.8107 58.9566 55.8107 58.8442Z" fill="#14C8FF" fill-rule="nonzero" fill-opacity="1" transform="matrix(1.00491 0 0 1 582.452 117.988)"/><path d="M64.9112 51.7099 65.9505 52.7491C66.2594 53.0581 66.428 53.5075 66.428 53.9569L66.428 59.097C66.428 59.5464 66.2594 59.9958 65.9505 60.3048L64.9112 61.3721C64.6022 61.6811 64.1809 61.8777 63.7596 61.8777L61.9058 61.8777C61.4845 61.8777 61.0351 61.7092 60.7261 61.3721L59.715 60.3048C59.406 59.9958 59.2375 59.5464 59.2375 59.097L59.2375 53.9569C59.2375 53.5075 59.406 53.0581 59.715 52.7491L60.7261 51.7099C61.0351 51.3728 61.4564 51.2043 61.9058 51.2043L63.7596 51.2043C64.1809 51.2043 64.6022 51.4009 64.9112 51.7099ZM64.4337 58.8442 64.4337 54.2659C64.4337 54.1816 64.3775 54.0974 64.3214 54.0131L63.7034 53.339C63.6192 53.2828 63.5349 53.2266 63.4506 53.2266L62.1305 53.2266C62.0462 53.2266 61.962 53.2828 61.9058 53.339L61.2879 54.0131C61.2036 54.0693 61.1755 54.1535 61.1755 54.2659L61.1755 58.8442C61.1755 58.9285 61.2036 59.0128 61.2879 59.097L61.9058 59.743C61.9901 59.8273 62.0462 59.8554 62.1305 59.8554L63.4506 59.8554C63.5349 59.8554 63.6192 59.8273 63.7034 59.743L64.3214 59.097C64.3775 59.0128 64.4337 58.9566 64.4337 58.8442Z" fill="#14C8FF" fill-rule="nonzero" fill-opacity="1" transform="matrix(1.00491 0 0 1 582.452 117.988)"/><path d="M39.0141 65.164 40.0534 66.2033C40.3624 66.5122 40.5309 66.9616 40.5309 67.411L40.5309 72.5511C40.5309 73.0005 40.3624 73.45 40.0534 73.7589L39.0141 74.8263C38.7052 75.1352 38.2839 75.3318 37.8625 75.3318L36.0087 75.3318C35.5874 75.3318 35.138 75.1633 34.829 74.8263L33.8179 73.7589C33.5089 73.45 33.3404 73.0005 33.3404 72.5511L33.3404 67.411C33.3404 66.9616 33.5089 66.5122 33.8179 66.2033L34.829 65.164C35.138 64.827 35.5593 64.6584 36.0087 64.6584L37.8625 64.6584C38.2839 64.6584 38.7052 64.855 39.0141 65.164ZM38.5366 72.2703 38.5366 67.6919C38.5366 67.6077 38.4805 67.5234 38.4243 67.4391L37.8064 66.765C37.7221 66.7088 37.6378 66.6527 37.5536 66.6527L36.2334 66.6527C36.1492 66.6527 36.0649 66.7088 36.0087 66.765L35.3908 67.4391C35.3065 67.4953 35.2784 67.5796 35.2784 67.6919L35.2784 72.2703C35.2784 72.3545 35.3065 72.4388 35.3908 72.523L36.0087 73.1691C36.093 73.2533 36.1492 73.2814 36.2334 73.2814L37.5536 73.2814C37.6378 73.2814 37.7221 73.2533 37.8064 73.1691L38.4243 72.523C38.4805 72.4388 38.5366 72.3826 38.5366 72.2703Z" fill="#14C8FF" fill-rule="nonzero" fill-opacity="1" transform="matrix(1.00491 0 0 1 582.452 117.988)"/><path d="M46.5136 75.3038 44.5475 75.3038 44.5475 64.6584 46.5136 64.6584 46.5136 75.3038Z" fill="#002864" fill-rule="nonzero" fill-opacity="1" transform="matrix(1.00491 0 0 1 582.452 117.988)"/><path d="M55.4175 75.3038 53.4513 75.3038 53.4513 64.6584 55.4175 64.6584 55.4175 75.3038Z" fill="#002864" fill-rule="nonzero" fill-opacity="1" transform="matrix(1.00491 0 0 1 582.452 117.988)"/><path d="M65.164 65.164 66.2033 66.2033C66.5122 66.5122 66.6808 66.9616 66.6808 67.411L66.6808 72.5511C66.6808 73.0005 66.5122 73.45 66.2033 73.7589L65.164 74.8263C64.855 75.1352 64.4337 75.3318 64.0124 75.3318L62.1586 75.3318C61.7373 75.3318 61.2879 75.1633 60.9789 74.8263L59.9677 73.7589C59.6588 73.45 59.4902 73.0005 59.4902 72.5511L59.4902 67.411C59.4902 66.9616 59.6588 66.5122 59.9677 66.2033L60.9789 65.164C61.2879 64.827 61.7092 64.6584 62.1586 64.6584L64.0124 64.6584C64.4337 64.6584 64.855 64.855 65.164 65.164ZM64.6865 72.2703 64.6865 67.6919C64.6865 67.6077 64.6303 67.5234 64.5742 67.4391L63.9562 66.765C63.872 66.7088 63.7877 66.6527 63.7034 66.6527L62.3833 66.6527C62.299 66.6527 62.2148 66.7088 62.1586 66.765L61.5407 67.4391C61.4564 67.4953 61.4283 67.5796 61.4283 67.6919L61.4283 72.2703C61.4283 72.3545 61.4564 72.4388 61.5407 72.523L62.1586 73.1691C62.2429 73.2533 62.299 73.2814 62.3833 73.2814L63.7034 73.2814C63.7877 73.2814 63.872 73.2533 63.9562 73.1691L64.5742 72.523C64.6303 72.4388 64.6865 72.3826 64.6865 72.2703Z" fill="#14C8FF" fill-rule="nonzero" fill-opacity="1" transform="matrix(1.00491 0 0 1 582.452 117.988)"/><path d="M78.7867 61.2036 79.7978 61.2036 79.7978 66.4841 78.7867 66.4841 78.7867 64.3495 76.9609 64.3495 76.9609 66.4841 75.9498 66.4841 75.9498 61.2036 76.9609 61.2036 76.9609 63.3383 78.7867 63.3383 78.7867 61.2036ZM81.4269 61.2036C81.3708 61.2036 81.3427 61.2036 81.3146 61.2598L80.9775 61.5968C80.9494 61.6249 80.9213 61.6811 80.9213 61.7092L80.9213 66.0066C80.9213 66.0628 80.9213 66.0909 80.9775 66.119L81.3146 66.4561C81.3427 66.4841 81.3988 66.5122 81.4269 66.5122L84.2638 66.5122 84.2638 65.5011 81.9325 65.5011 81.9325 64.3775 83.9548 64.3775 83.9548 63.3664 81.9325 63.3664 81.9325 62.2429 84.2638 62.2429 84.2638 61.2317 81.4269 61.2317ZM85.8086 66.5122 88.168 66.5122 88.168 65.5011 86.3142 65.5011 86.3142 61.2317 85.3031 61.2317 85.3031 66.0066C85.3031 66.0628 85.3031 66.0909 85.3592 66.119L85.6963 66.4561C85.7244 66.4841 85.7805 66.5122 85.8086 66.5122ZM95.7237 63.3383 95.7237 61.2036 94.7125 61.2036 94.7125 66.4841 95.7237 66.4841 95.7237 64.3495 97.5494 64.3495 97.5494 66.4841 98.5606 66.4841 98.5606 61.2036 97.5494 61.2036 97.5494 63.3383 95.7237 63.3383ZM102.493 64.9955C102.493 65.0517 102.493 65.0797 102.437 65.1078L102.128 65.4168C102.1 65.4449 102.043 65.473 101.987 65.473L101.088 65.473C101.032 65.473 101.004 65.473 100.976 65.4168L100.667 65.1078C100.639 65.0797 100.611 65.0236 100.611 64.9955L100.611 62.7204C100.611 62.6642 100.611 62.6361 100.667 62.608L100.976 62.271C101.004 62.2429 101.06 62.2148 101.088 62.2148L101.987 62.2148C102.043 62.2148 102.072 62.2148 102.128 62.271L102.437 62.608C102.465 62.6361 102.493 62.6923 102.493 62.7204L102.493 64.9955ZM102.718 61.4564C102.549 61.2879 102.352 61.2036 102.128 61.2036L100.948 61.2036C100.723 61.2036 100.499 61.2879 100.33 61.4564L99.7964 61.9901C99.6279 62.1586 99.5436 62.3552 99.5436 62.5799L99.5436 65.1359C99.5436 65.3606 99.6279 65.5853 99.7964 65.7258L100.33 66.2594C100.499 66.428 100.723 66.5122 100.948 66.5122L102.128 66.5122C102.352 66.5122 102.577 66.428 102.718 66.2594L103.251 65.7258C103.42 65.5572 103.504 65.3606 103.504 65.1359L103.504 62.5799C103.504 62.3552 103.42 62.1305 103.251 61.9901L102.718 61.4564ZM104.993 66.5122 107.38 66.5122 107.38 65.5011 105.498 65.5011 105.498 61.2317 104.487 61.2317 104.487 66.0066C104.487 66.0628 104.487 66.0909 104.543 66.119L104.88 66.4561C104.908 66.4841 104.965 66.5122 104.993 66.5122ZM108.532 62.2148 108.532 66.4841 109.543 66.4841 109.543 62.2148 110.947 62.2148 110.947 61.2036 107.127 61.2036 107.127 62.2148 108.532 62.2148ZM114.571 61.2598C114.543 61.2317 114.486 61.2036 114.458 61.2036L111.509 61.2036 111.509 62.2148 113.616 62.2148 111.425 65.6696 111.425 65.9786C111.425 66.0347 111.425 66.0628 111.481 66.0909L111.818 66.428C111.846 66.4561 111.902 66.4841 111.93 66.4841L114.964 66.4841 114.964 65.473 112.773 65.473 114.992 61.962 114.992 61.7092C114.992 61.653 114.992 61.6249 114.936 61.5968L114.599 61.2598ZM92.5778 61.2036 91.1734 63.6473 89.769 61.2036 88.786 61.2036 88.786 66.4841 89.7971 66.4841 89.7971 63.2259 90.6959 64.7989C90.724 64.855 90.7802 64.8831 90.8364 64.8831L91.4543 64.8831C91.5105 64.8831 91.5667 64.855 91.5948 64.7989L92.4936 63.2259 92.4936 66.4841 93.5047 66.4841 93.5047 61.2036 92.5497 61.2036Z" fill="#002864" fill-rule="nonzero" fill-opacity="1" transform="matrix(1.00491 0 0 1 582.452 117.988)"/></g></g></g></g></svg>